<svg width="176" height="42" viewBox="0 0 176 42" fill="none" xmlns="http://www.w3.org/2000/svg">
<path d="M18.8 10.56C17.8 10.56 16.92 11.04 16.36 11.76C14.92 11 13.28 10.56 11.52 10.56C5.84 10.56 1.24 15.16 1.24 20.84C1.24 26.52 5.84 31.12 11.52 31.12C13 31.12 14.44 30.8 15.72 30.24C15.44 32.32 13.64 33.92 11.48 33.92C9.8 33.92 8.44 35.28 8.44 36.96C8.44 38.64 9.8 40 11.48 40C17.16 40 21.76 35.4 21.76 29.72L21.76 13.64C21.76 11.96 20.4 10.6 18.72 10.6L18.8 10.56ZM11.48 25.12C9.16 25.12 7.28 23.2 7.28 20.88C7.28 18.56 9.16 16.68 11.48 16.68C13.8 16.68 15.68 18.56 15.68 20.88C15.68 23.2 13.8 25.12 11.48 25.12ZM34.3669 10.56C32.6469 10.56 31.0069 11 29.5669 11.76C29.0069 11.04 28.1269 10.56 27.1669 10.56C25.5269 10.56 24.2069 11.88 24.2069 13.52L24.2069 27.88C24.2069 29.52 25.5269 30.84 27.1669 30.84C28.8069 30.84 30.1269 29.52 30.1269 27.88L30.1269 20.68C30.1269 18.36 32.0069 16.48 34.3269 16.48C35.9669 16.48 37.2869 15.16 37.2869 13.52C37.2869 11.88 35.9669 10.56 34.3269 10.56L34.3669 10.56ZM54.7966 10.72C53.8366 10.72 52.9566 11.2 52.3966 11.92C50.9566 11.16 49.3166 10.72 47.5966 10.72C41.9966 10.72 37.4366 15.28 37.4366 20.88C37.4366 26.48 41.9966 31.04 47.5966 31.04C49.3166 31.04 50.9566 30.6 52.3966 29.84C52.9566 30.56 53.8366 31.04 54.7966 31.04C56.4366 31.04 57.7566 29.72 57.7566 28.08L57.7566 13.76C57.7566 12.12 56.4366 10.8 54.7966 10.8L54.7966 10.72ZM47.6366 25.12C45.3166 25.12 43.4366 23.24 43.4366 20.92C43.4366 18.6 45.3166 16.72 47.6366 16.72C49.9566 16.72 51.8366 18.6 51.8366 20.92C51.8366 23.24 49.9566 25.12 47.6366 25.12ZM70.8119 10.56C69.0519 10.56 67.4119 11 65.9719 11.76C65.4119 11.04 64.5319 10.56 63.5319 10.56C61.8519 10.56 60.4919 11.92 60.4919 13.6L60.4919 36.92C60.4919 38.6 61.8519 39.96 63.5319 39.96C65.2119 39.96 66.5719 38.6 66.5719 36.92L66.5719 30.2C67.8519 30.8 69.2919 31.12 70.8119 31.12C76.4919 31.12 81.0919 26.52 81.0919 20.84C81.0919 15.16 76.4919 10.56 70.8119 10.56ZM70.8119 25.08C68.4919 25.08 66.6119 23.16 66.6119 20.84C66.6119 18.52 68.4919 16.64 70.8119 16.64C73.1319 16.64 75.0119 18.52 75.0119 20.84C75.0119 23.16 73.1319 25.08 70.8119 25.08ZM93.0625 31C94.7025 31 96.0225 29.68 96.0225 28.04C96.0225 26.4 94.7025 25.08 93.0625 25.08C91.9025 25.08 90.8625 24.6 90.1025 23.84L100.183 23.84C100.983 23.84 101.743 23.52 102.303 22.96C102.863 22.4 103.183 21.64 103.183 20.84C103.183 15.24 98.6225 10.68 93.0225 10.68C87.4225 10.68 82.8625 15.24 82.8625 20.84C82.8625 26.44 87.4225 31 93.0225 31L93.0625 31ZM90.1025 17.88C90.8625 17.12 91.9025 16.64 93.0625 16.64C94.2225 16.64 95.2625 17.12 96.0225 17.88L90.1025 17.88ZM115.448 31C120.848 31 125.248 26.6 125.248 21.2L125.248 13.52C125.248 11.92 123.968 10.64 122.368 10.64C120.768 10.64 119.488 11.92 119.488 13.52L119.488 21.2C119.488 23.44 117.688 25.24 115.448 25.24C113.208 25.24 111.408 23.44 111.408 21.2L111.408 13.52C111.408 11.92 110.128 10.64 108.528 10.64C106.928 10.64 105.648 11.92 105.648 13.52L105.648 21.2C105.648 26.6 110.048 31 115.448 31ZM130.798 7.92C131.598 7.92 132.358 7.6 132.918 7.04C133.478 6.48 133.798 5.72 133.798 4.92C133.798 4.12 133.478 3.36 132.918 2.8C131.798 1.68 129.798 1.68 128.678 2.8C128.118 3.36 127.798 4.12 127.798 4.92C127.798 5.72 128.118 6.48 128.678 7.04C129.238 7.6 129.998 7.92 130.798 7.92ZM130.798 31C132.438 31 133.758 29.68 133.758 28.04L133.758 13.68C133.758 12.04 132.438 10.72 130.798 10.72C129.158 10.72 127.838 12.04 127.838 13.68L127.838 28.04C127.838 29.68 129.158 31 130.798 31Z" fill="#242424"/>
<g clip-path="url(#clip0)">
<path d="M166.688 21.5395C171.257 21.5395 174.96 17.8362 174.96 13.2682C174.96 8.70003 171.257 4.99683 166.688 4.99683C162.12 4.99683 158.417 8.70003 158.417 13.2682C158.417 17.8362 162.12 21.5395 166.688 21.5395Z" fill="#840B55"/>
<path d="M166.692 17.4188C168.976 17.4188 170.828 15.5673 170.828 13.2832C170.828 10.9992 168.976 9.14752 166.692 9.14752C164.408 9.14752 162.557 10.9992 162.557 13.2832C162.557 15.5673 164.408 17.4188 166.692 17.4188Z" fill="#CB27A8"/>
<path d="M166.688 31.7408C171.257 31.7408 174.96 28.0376 174.96 23.4695C174.96 18.9013 171.257 15.1982 166.688 15.1982C162.12 15.1982 158.417 18.9013 158.417 23.4695C158.417 28.0376 162.12 31.7408 166.688 31.7408Z" fill="#840B55"/>
<path d="M166.692 27.6201C168.976 27.6201 170.828 25.7686 170.828 23.4845C170.828 21.2004 168.976 19.3488 166.692 19.3488C164.408 19.3488 162.557 21.2004 162.557 23.4845C162.557 25.7686 164.408 27.6201 166.692 27.6201Z" fill="#CB27A8"/>
<path d="M155.976 0.149383C155.55 0.321521 155.258 0.677512 155.143 1.08067C154.399 1.00475 153.624 1.09959 152.874 1.40255C150.454 2.3803 149.286 5.13201 150.264 7.55201C151.242 9.97203 153.994 11.14 156.414 10.1623C157.044 9.90752 157.603 9.52336 158.052 9.0644C158.29 9.99878 157.799 10.9903 156.879 11.3622C156.163 11.6514 155.817 12.4649 156.107 13.1807C156.396 13.8964 157.209 14.2418 157.925 13.9526C160.345 12.9748 161.513 10.2231 160.535 7.80313L157.767 0.952114C157.478 0.236335 156.665 -0.108997 155.949 0.180196L155.976 0.149383ZM155.364 7.61285C154.375 8.0122 153.244 7.5178 152.844 6.52935C152.445 5.54089 152.922 4.41628 153.911 4.01692C154.899 3.61755 156.024 4.09492 156.423 5.08338C156.823 6.07183 156.352 7.21349 155.364 7.61285Z" fill="#27CB4A"/>
<path d="M152.352 27.6052C156.92 27.6052 160.623 23.9019 160.623 19.3338C160.623 14.7657 156.92 11.0625 152.352 11.0625C147.783 11.0625 144.08 14.7657 144.08 19.3338C144.08 23.9019 147.783 27.6052 152.352 27.6052Z" fill="#CB27A8"/>
<path d="M152.355 23.4845C154.639 23.4845 156.491 21.6329 156.491 19.3488C156.491 17.0648 154.639 15.2131 152.355 15.2131C150.071 15.2131 148.22 17.0648 148.22 19.3488C148.22 21.6329 150.071 23.4845 152.355 23.4845Z" fill="#840B55"/>
<path d="M159.612 34.7737C164.18 34.7737 167.883 31.0704 167.883 26.5023C167.883 21.9342 164.18 18.231 159.612 18.231C155.044 18.231 151.341 21.9342 151.341 26.5023C151.341 31.0704 155.044 34.7737 159.612 34.7737Z" fill="#CB27A8"/>
<path d="M159.616 30.653C161.9 30.653 163.751 28.8014 163.751 26.5173C163.751 24.2333 161.9 22.3817 159.616 22.3817C157.332 22.3817 155.48 24.2333 155.48 26.5173C155.48 28.8014 157.332 30.653 159.616 30.653Z" fill="#840B55"/>
<path d="M166.78 41.9421C171.349 41.9421 175.052 38.2389 175.052 33.6708C175.052 29.1026 171.349 25.3995 166.78 25.3995C162.212 25.3995 158.509 29.1026 158.509 33.6708C158.509 38.2389 162.212 41.9421 166.78 41.9421Z" fill="#CB27A8"/>
<path d="M166.784 37.8214C169.068 37.8214 170.92 35.9699 170.92 33.6858C170.92 31.4018 169.068 29.5501 166.784 29.5501C164.5 29.5501 162.648 31.4018 162.648 33.6858C162.648 35.9699 164.5 37.8214 166.784 37.8214Z" fill="#840B55"/>
<path d="M154.687 10.524C157.261 10.524 159.356 8.42857 159.356 5.85526C159.356 3.28196 157.261 1.18655 154.687 1.18655C152.114 1.18655 150.019 3.28196 150.019 5.85526C150.019 8.42857 152.114 10.524 154.687 10.524ZM154.687 3.92529C155.753 3.92529 156.617 4.78918 156.617 5.85526C156.617 6.92135 155.753 7.78524 154.687 7.78524C153.621 7.78524 152.757 6.92135 152.757 5.85526C152.757 4.78918 153.621 3.92529 154.687 3.92529Z" fill="url(#paint0_linear)"/>
<mask id="mask0" mask-type="alpha" maskUnits="userSpaceOnUse" x="154" y="0" width="6" height="10">
<path d="M154.73 0.0326843L157.441 0.0326852L159.831 6.19023L158.13 9.0852L156.522 5.91454L154.73 0.0326843Z" fill="#C4C4C4"/>
</mask>
<g mask="url(#mask0)">
<path d="M160.885 12.481C161.584 12.1987 161.919 11.4091 161.637 10.7103L157.671 0.893939C157.388 0.195205 156.599 -0.139969 155.9 0.142338C155.201 0.424646 154.866 1.21426 155.148 1.913L159.115 11.7294C159.397 12.4281 160.186 12.7633 160.885 12.481Z" fill="url(#paint1_linear)"/>
</g>
</g>
<defs>
<linearGradient id="paint0_linear" x1="154.706" y1="-3.6292" x2="154.706" y2="15.4868" gradientUnits="userSpaceOnUse">
<stop stop-color="#27CB4A"/>
<stop offset="1" stop-color="#27C949"/>
</linearGradient>
<linearGradient id="paint1_linear" x1="155.643" y1="-0.665707" x2="158.084" y2="7.01737" gradientUnits="userSpaceOnUse">
<stop stop-color="#47DC67"/>
<stop offset="0.552083" stop-color="#27CB4A"/>
</linearGradient>
<clipPath id="clip0">
<rect x="144" width="31.0635" height="42" fill="white"/>
</clipPath>
</defs>
</svg>
