<svg width="1473" height="469" viewBox="0 0 1473 469" fill="none" xmlns="http://www.w3.org/2000/svg">
<g clip-path="url(#clip0)">
<path d="M1380.99 234.37C1430.7 234.37 1470.99 194.075 1470.99 144.37C1470.99 94.6642 1430.7 54.3698 1380.99 54.3698C1331.29 54.3698 1290.99 94.6642 1290.99 144.37C1290.99 194.075 1331.29 234.37 1380.99 234.37Z" fill="#840B55"/>
<path d="M1381.03 189.533C1405.88 189.533 1426.03 169.386 1426.03 144.533C1426.03 119.681 1405.88 99.5333 1381.03 99.5333C1356.18 99.5333 1336.03 119.681 1336.03 144.533C1336.03 169.386 1356.18 189.533 1381.03 189.533Z" fill="#CB27A8"/>
<path d="M1380.99 345.37C1430.7 345.37 1470.99 305.075 1470.99 255.37C1470.99 205.664 1430.7 165.37 1380.99 165.37C1331.29 165.37 1290.99 205.664 1290.99 255.37C1290.99 305.075 1331.29 345.37 1380.99 345.37Z" fill="#840B55"/>
<path d="M1381.03 300.533C1405.88 300.533 1426.03 280.386 1426.03 255.533C1426.03 230.68 1405.88 210.533 1381.03 210.533C1356.18 210.533 1336.03 230.68 1336.03 255.533C1336.03 280.386 1356.18 300.533 1381.03 300.533Z" fill="#CB27A8"/>
<path d="M1264.43 1.62522C1259.8 3.49826 1256.61 7.37177 1255.37 11.7585C1247.27 10.9324 1238.84 11.9644 1230.68 15.2609C1204.35 25.8997 1191.64 55.8409 1202.28 82.1729C1212.92 108.505 1242.86 121.214 1269.19 110.575C1276.05 107.803 1282.13 103.623 1287.01 98.6291C1289.61 108.796 1284.26 119.585 1274.25 123.631C1266.46 126.778 1262.7 135.63 1265.85 143.418C1269 151.206 1277.85 154.964 1285.64 151.817C1311.97 141.178 1324.68 111.237 1314.04 84.9053L1283.92 10.3597C1280.78 2.57134 1271.92 -1.1862 1264.14 1.9605L1264.43 1.62522ZM1257.77 82.8348C1247.01 87.1802 1234.7 81.8006 1230.36 71.0453C1226.01 60.2899 1231.2 48.0531 1241.96 43.7077C1252.71 39.3622 1264.95 44.5564 1269.3 55.3118C1273.64 66.0671 1268.52 78.4894 1257.77 82.8348Z" fill="#27CB4A"/>
<path d="M1224.99 300.37C1274.7 300.37 1314.99 260.075 1314.99 210.37C1314.99 160.664 1274.7 120.37 1224.99 120.37C1175.29 120.37 1134.99 160.664 1134.99 210.37C1134.99 260.075 1175.29 300.37 1224.99 300.37Z" fill="#CB27A8"/>
<path d="M1225.03 255.533C1249.88 255.533 1270.03 235.386 1270.03 210.533C1270.03 185.681 1249.88 165.533 1225.03 165.533C1200.18 165.533 1180.03 185.681 1180.03 210.533C1180.03 235.386 1200.18 255.533 1225.03 255.533Z" fill="#840B55"/>
<path d="M1303.99 378.37C1353.7 378.37 1393.99 338.075 1393.99 288.37C1393.99 238.664 1353.7 198.37 1303.99 198.37C1254.29 198.37 1213.99 238.664 1213.99 288.37C1213.99 338.075 1254.29 378.37 1303.99 378.37Z" fill="#CB27A8"/>
<path d="M1304.03 333.533C1328.88 333.533 1349.03 313.386 1349.03 288.533C1349.03 263.681 1328.88 243.533 1304.03 243.533C1279.18 243.533 1259.03 263.681 1259.03 288.533C1259.03 313.386 1279.18 333.533 1304.03 333.533Z" fill="#840B55"/>
<path d="M1381.99 456.37C1431.7 456.37 1471.99 416.075 1471.99 366.37C1471.99 316.664 1431.7 276.37 1381.99 276.37C1332.29 276.37 1291.99 316.664 1291.99 366.37C1291.99 416.075 1332.29 456.37 1381.99 456.37Z" fill="#CB27A8"/>
<path d="M1382.03 411.533C1406.88 411.533 1427.03 391.386 1427.03 366.533C1427.03 341.681 1406.88 321.533 1382.03 321.533C1357.18 321.533 1337.03 341.681 1337.03 366.533C1337.03 391.386 1357.18 411.533 1382.03 411.533Z" fill="#840B55"/>
<path d="M1250.41 114.51C1278.41 114.51 1301.21 91.7102 1301.21 63.7102C1301.21 35.7102 1278.41 12.9102 1250.41 12.9102C1222.41 12.9102 1199.61 35.7102 1199.61 63.7102C1199.61 91.7102 1222.41 114.51 1250.41 114.51ZM1250.41 42.7102C1262.01 42.7102 1271.41 52.1102 1271.41 63.7102C1271.41 75.3102 1262.01 84.7102 1250.41 84.7102C1238.81 84.7102 1229.41 75.3102 1229.41 63.7102C1229.41 52.1102 1238.81 42.7102 1250.41 42.7102Z" fill="url(#paint0_linear)"/>
<mask id="mask0" mask-type="alpha" maskUnits="userSpaceOnUse" x="1250" y="0" width="57" height="99">
<path d="M1250.87 0.355255L1280.37 0.355265L1306.37 67.3552L1287.87 98.8552L1270.37 64.3554L1250.87 0.355255Z" fill="#C4C4C4"/>
</mask>
<g mask="url(#mask0)">
<path d="M1317.85 135.805C1325.45 132.733 1329.1 124.141 1326.02 116.538L1282.87 9.72658C1279.8 2.12368 1271.21 -1.52333 1263.6 1.54844C1256 4.62022 1252.35 13.212 1255.43 20.8149L1298.58 127.627C1301.65 135.229 1310.24 138.876 1317.85 135.805Z" fill="url(#paint1_linear)"/>
</g>
<path d="M132 155.5C124.5 155.5 117.9 159.1 113.7 164.5C102.9 158.8 90.6 155.5 77.4 155.5C34.8 155.5 0.299989 190 0.299989 232.6C0.29999 275.2 34.8 309.7 77.4 309.7C88.5 309.7 99.3 307.3 108.9 303.1C106.8 318.7 93.3 330.7 77.1 330.7C64.5 330.7 54.3 340.9 54.3 353.5C54.3 366.1 64.5 376.3 77.1 376.3C119.7 376.3 154.2 341.8 154.2 299.2L154.2 178.6C154.2 166 144 155.8 131.4 155.8L132 155.5ZM77.1 264.7C59.7 264.7 45.6 250.3 45.6 232.9C45.6 215.5 59.7 201.4 77.1 201.4C94.5 201.4 108.6 215.5 108.6 232.9C108.6 250.3 94.5 264.7 77.1 264.7Z" fill="black" fill-opacity="0.86"/>
<path d="M248.752 155.5C235.852 155.5 223.552 158.8 212.752 164.5C208.552 159.1 201.952 155.5 194.752 155.5C182.452 155.5 172.552 165.4 172.552 177.7L172.552 285.4C172.552 297.7 182.452 307.6 194.752 307.6C207.052 307.6 216.952 297.7 216.952 285.4L216.952 231.4C216.952 214 231.052 199.9 248.452 199.9C260.752 199.9 270.652 190 270.652 177.7C270.652 165.4 260.752 155.5 248.452 155.5L248.752 155.5Z" fill="black" fill-opacity="0.86"/>
<path d="M401.974 156.7C394.774 156.7 388.174 160.3 383.974 165.7C373.174 160 360.874 156.7 347.974 156.7C305.974 156.7 271.774 190.9 271.774 232.9C271.774 274.9 305.974 309.1 347.974 309.1C360.874 309.1 373.174 305.8 383.974 300.1C388.174 305.5 394.774 309.1 401.974 309.1C414.274 309.1 424.174 299.2 424.174 286.9L424.174 179.5C424.174 167.2 414.274 157.3 401.974 157.3L401.974 156.7ZM348.274 264.7C330.874 264.7 316.774 250.6 316.774 233.2C316.774 215.8 330.874 201.7 348.274 201.7C365.674 201.7 379.774 215.8 379.774 233.2C379.774 250.6 365.674 264.7 348.274 264.7Z" fill="black" fill-opacity="0.86"/>
<path d="M522.089 155.5C508.889 155.5 496.589 158.8 485.789 164.5C481.589 159.1 474.989 155.5 467.489 155.5C454.889 155.5 444.689 165.7 444.689 178.3L444.689 353.2C444.689 365.8 454.889 376 467.489 376C480.089 376 490.289 365.8 490.289 353.2L490.289 302.8C499.889 307.3 510.689 309.7 522.089 309.7C564.689 309.7 599.189 275.2 599.189 232.6C599.189 190 564.689 155.5 522.089 155.5ZM522.089 264.4C504.689 264.4 490.589 250 490.589 232.6C490.589 215.2 504.689 201.1 522.089 201.1C539.489 201.1 553.589 215.2 553.589 232.6C553.589 250 539.489 264.4 522.089 264.4Z" fill="black" fill-opacity="0.86"/>
<path d="M688.969 308.8C701.269 308.8 711.169 298.9 711.169 286.6C711.169 274.3 701.269 264.4 688.969 264.4C680.269 264.4 672.469 260.8 666.769 255.1L742.369 255.1C748.369 255.1 754.069 252.7 758.269 248.5C762.469 244.3 764.869 238.6 764.869 232.6C764.869 190.6 730.669 156.4 688.669 156.4C646.669 156.4 612.469 190.6 612.469 232.6C612.469 274.6 646.669 308.8 688.669 308.8L688.969 308.8ZM666.769 210.4C672.469 204.7 680.269 201.1 688.969 201.1C697.669 201.1 705.469 204.7 711.169 210.4L666.769 210.4Z" fill="black" fill-opacity="0.86"/>
<path d="M856.861 308.8C897.361 308.8 930.361 275.8 930.361 235.3L930.361 177.7C930.361 165.7 920.761 156.1 908.761 156.1C896.761 156.1 887.161 165.7 887.161 177.7L887.161 235.3C887.161 252.1 873.661 265.6 856.861 265.6C840.061 265.6 826.561 252.1 826.561 235.3L826.561 177.7C826.561 165.7 816.961 156.1 804.961 156.1C792.961 156.1 783.361 165.7 783.361 177.7L783.361 235.3C783.361 275.8 816.361 308.8 856.861 308.8Z" fill="black" fill-opacity="0.86"/>
<path d="M971.981 135.7C977.981 135.7 983.681 133.3 987.881 129.1C992.081 124.9 994.481 119.2 994.481 113.2C994.481 107.2 992.081 101.5 987.881 97.3C979.481 88.9 964.481 88.9 956.081 97.3C951.881 101.5 949.481 107.2 949.481 113.2C949.481 119.2 951.881 124.9 956.081 129.1C960.281 133.3 965.981 135.7 971.981 135.7ZM971.981 308.8C984.281 308.8 994.181 298.9 994.181 286.6L994.181 178.9C994.181 166.6 984.281 156.7 971.981 156.7C959.681 156.7 949.781 166.6 949.781 178.9L949.781 286.6C949.781 298.9 959.681 308.8 971.981 308.8Z" fill="black" fill-opacity="0.86"/>
</g>
<defs>
<linearGradient id="paint0_linear" x1="1250.61" y1="-39.4898" x2="1250.61" y2="168.51" gradientUnits="userSpaceOnUse">
<stop stop-color="#27CB4A"/>
<stop offset="1" stop-color="#27C949"/>
</linearGradient>
<linearGradient id="paint1_linear" x1="1260.81" y1="-7.24386" x2="1287.37" y2="76.3553" gradientUnits="userSpaceOnUse">
<stop stop-color="#47DC67"/>
<stop offset="0.552083" stop-color="#27CB4A"/>
</linearGradient>
<clipPath id="clip0">
<rect width="1473" height="469" fill="white"/>
</clipPath>
</defs>
</svg>
